<svg xmlns="http://www.w3.org/2000/svg" fill="none" viewBox="0 0 221 47" height="47" width="221">
<path fill="#00A184" d="M59.0513 21.2703C58.6084 21.2703 58.2485 21.1688 57.9717 20.9658C57.7133 20.7628 57.5564 20.4952 57.5011 20.163C57.4457 19.8123 57.5103 19.4248 57.6949 19.0003L65.0031 2.80583C65.243 2.27063 65.5291 1.8923 65.8613 1.67083C66.2119 1.43092 66.6087 1.31096 67.0517 1.31096C67.4761 1.31096 67.8545 1.43092 68.1867 1.67083C68.5373 1.8923 68.8326 2.27063 69.0725 2.80583L76.4085 19.0003C76.6115 19.4248 76.6853 19.8123 76.6299 20.163C76.5746 20.5136 76.4177 20.7905 76.1593 20.9935C75.9009 21.178 75.5595 21.2703 75.135 21.2703C74.6183 21.2703 74.2123 21.1503 73.917 20.9104C73.6402 20.652 73.391 20.2645 73.1696 19.7477L71.3702 15.5676L72.8651 16.5365H61.1829L62.6778 15.5676L60.9061 19.7477C60.6661 20.2829 60.417 20.6705 60.1586 20.9104C59.9003 21.1503 59.5311 21.2703 59.0513 21.2703ZM66.9963 5.38034L63.1207 14.5987L62.4009 13.7129H71.647L70.9549 14.5987L67.0517 5.38034H66.9963ZM80.897 21.2703C80.3433 21.2703 79.9188 21.1226 79.6236 20.8274C79.3283 20.5136 79.1806 20.0707 79.1806 19.4986V9.03447C79.1806 8.46236 79.3283 8.02866 79.6236 7.73338C79.9188 7.43809 80.3341 7.29045 80.8693 7.29045C81.4045 7.29045 81.8197 7.43809 82.115 7.73338C82.4103 8.02866 82.5579 8.46236 82.5579 9.03447V11.0553L82.2534 10.2248C82.6225 9.30207 83.1946 8.57309 83.9698 8.03789C84.7449 7.50269 85.6676 7.23509 86.738 7.23509C87.8269 7.23509 88.722 7.49346 89.4233 8.01021C90.1246 8.52695 90.6136 9.32053 90.8905 10.3909H90.5029C90.872 9.4128 91.481 8.64691 92.33 8.09326C93.1789 7.52114 94.1571 7.23509 95.2644 7.23509C96.2979 7.23509 97.1468 7.43809 97.8112 7.84411C98.494 8.25013 99.0016 8.86838 99.3337 9.69886C99.6659 10.5109 99.832 11.5444 99.832 12.7993V19.4986C99.832 20.0707 99.6752 20.5136 99.3614 20.8274C99.0661 21.1226 98.6417 21.2703 98.088 21.2703C97.5344 21.2703 97.1099 21.1226 96.8146 20.8274C96.5193 20.5136 96.3717 20.0707 96.3717 19.4986V12.9378C96.3717 11.9043 96.1964 11.1476 95.8457 10.6678C95.5135 10.1879 94.9414 9.94801 94.1294 9.94801C93.2251 9.94801 92.5145 10.271 91.9978 10.9169C91.481 11.5444 91.2227 12.421 91.2227 13.5468V19.4986C91.2227 20.0707 91.075 20.5136 90.7797 20.8274C90.4845 21.1226 90.06 21.2703 89.5063 21.2703C88.9527 21.2703 88.519 21.1226 88.2052 20.8274C87.91 20.5136 87.7623 20.0707 87.7623 19.4986V12.9378C87.7623 11.9043 87.587 11.1476 87.2363 10.6678C86.9041 10.1879 86.3413 9.94801 85.5477 9.94801C84.6434 9.94801 83.9329 10.271 83.4161 10.9169C82.8994 11.5444 82.641 12.421 82.641 13.5468V19.4986C82.641 20.6797 82.0596 21.2703 80.897 21.2703ZM111.208 21.3257C110.064 21.3257 109.058 21.0396 108.191 20.4675C107.342 19.8954 106.779 19.1295 106.502 18.1698L106.807 17.4777V19.4986C106.807 20.0707 106.659 20.5136 106.364 20.8274C106.069 21.1226 105.653 21.2703 105.118 21.2703C104.565 21.2703 104.14 21.1226 103.845 20.8274C103.549 20.5136 103.402 20.0707 103.402 19.4986V3.05498C103.402 2.48286 103.549 2.04917 103.845 1.75388C104.14 1.4586 104.565 1.31096 105.118 1.31096C105.672 1.31096 106.096 1.4586 106.392 1.75388C106.705 2.04917 106.862 2.48286 106.862 3.05498V10.2525H106.53C106.825 9.34821 107.397 8.61923 108.246 8.06557C109.095 7.51192 110.083 7.23509 111.208 7.23509C112.408 7.23509 113.451 7.52114 114.337 8.09326C115.222 8.66537 115.914 9.4774 116.413 10.5293C116.911 11.5628 117.16 12.8086 117.16 14.2665C117.16 15.706 116.911 16.961 116.413 18.0314C115.914 19.0833 115.213 19.8954 114.309 20.4675C113.423 21.0396 112.39 21.3257 111.208 21.3257ZM110.239 18.6958C110.922 18.6958 111.522 18.5297 112.039 18.1975C112.556 17.8653 112.952 17.3762 113.229 16.7303C113.525 16.0659 113.672 15.2447 113.672 14.2665C113.672 12.7901 113.358 11.692 112.731 10.9723C112.103 10.2341 111.273 9.86496 110.239 9.86496C109.557 9.86496 108.957 10.0311 108.44 10.3632C107.923 10.677 107.517 11.1661 107.222 11.8304C106.945 12.4764 106.807 13.2884 106.807 14.2665C106.807 15.7245 107.121 16.8318 107.748 17.5885C108.376 18.3267 109.206 18.6958 110.239 18.6958ZM124.901 21.3257C123.775 21.3257 122.843 21.1226 122.105 20.7166C121.366 20.2922 120.813 19.6647 120.444 18.8342C120.093 18.0037 119.918 16.9702 119.918 15.7337V9.03447C119.918 8.44391 120.065 8.01021 120.361 7.73338C120.656 7.43809 121.08 7.29045 121.634 7.29045C122.188 7.29045 122.612 7.43809 122.907 7.73338C123.221 8.01021 123.378 8.44391 123.378 9.03447V15.7891C123.378 16.7488 123.572 17.4593 123.959 17.9207C124.347 18.382 124.965 18.6127 125.814 18.6127C126.737 18.6127 127.494 18.299 128.084 17.6715C128.675 17.0256 128.97 16.1766 128.97 15.1247V9.03447C128.97 8.44391 129.118 8.01021 129.413 7.73338C129.708 7.43809 130.133 7.29045 130.686 7.29045C131.24 7.29045 131.664 7.43809 131.96 7.73338C132.273 8.01021 132.43 8.44391 132.43 9.03447V19.4986C132.43 20.6797 131.867 21.2703 130.742 21.2703C130.206 21.2703 129.791 21.1226 129.496 20.8274C129.201 20.5136 129.053 20.0707 129.053 19.4986V17.3947L129.441 18.2252C129.053 19.2218 128.462 19.9877 127.669 20.5229C126.894 21.0581 125.971 21.3257 124.901 21.3257ZM140.655 21.3257C139.123 21.3257 137.97 20.892 137.195 20.0246C136.419 19.1387 136.032 17.8468 136.032 16.149V3.05498C136.032 2.48286 136.18 2.04917 136.475 1.75388C136.77 1.4586 137.195 1.31096 137.748 1.31096C138.302 1.31096 138.726 1.4586 139.022 1.75388C139.335 2.04917 139.492 2.48286 139.492 3.05498V15.9829C139.492 16.8318 139.668 17.4593 140.018 17.8653C140.387 18.2713 140.904 18.4743 141.568 18.4743C141.716 18.4743 141.855 18.4743 141.984 18.4743C142.113 18.4559 142.242 18.4374 142.371 18.419C142.63 18.382 142.805 18.4559 142.897 18.6404C142.99 18.8065 143.036 19.1572 143.036 19.6924C143.036 20.1537 142.943 20.5136 142.759 20.772C142.574 21.0304 142.27 21.1872 141.845 21.2426C141.661 21.2611 141.467 21.2795 141.264 21.298C141.061 21.3164 140.858 21.3257 140.655 21.3257ZM149.941 21.3257C148.76 21.3257 147.717 21.0396 146.813 20.4675C145.927 19.8954 145.235 19.0833 144.737 18.0314C144.239 16.961 143.989 15.706 143.989 14.2665C143.989 12.8086 144.239 11.5628 144.737 10.5293C145.235 9.4774 145.927 8.66537 146.813 8.09326C147.717 7.52114 148.76 7.23509 149.941 7.23509C151.067 7.23509 152.045 7.51192 152.876 8.06557C153.725 8.61923 154.297 9.34821 154.592 10.2525L154.315 10.9446V9.03447C154.315 8.46236 154.463 8.02866 154.758 7.73338C155.072 7.43809 155.496 7.29045 156.031 7.29045C156.585 7.29045 157.01 7.43809 157.305 7.73338C157.6 8.02866 157.748 8.46236 157.748 9.03447V19.4986C157.748 20.0707 157.6 20.5136 157.305 20.8274C157.01 21.1226 156.585 21.2703 156.031 21.2703C155.478 21.2703 155.053 21.1226 154.758 20.8274C154.463 20.5136 154.315 20.0707 154.315 19.4986V17.6162L154.62 18.1698C154.343 19.1295 153.78 19.8954 152.931 20.4675C152.082 21.0396 151.085 21.3257 149.941 21.3257ZM150.91 18.6958C151.593 18.6958 152.193 18.5297 152.71 18.1975C153.226 17.8653 153.623 17.3762 153.9 16.7303C154.195 16.0659 154.343 15.2447 154.343 14.2665C154.343 12.7901 154.029 11.692 153.402 10.9723C152.774 10.2341 151.944 9.86496 150.91 9.86496C150.227 9.86496 149.627 10.0311 149.111 10.3632C148.594 10.677 148.188 11.1661 147.893 11.8304C147.616 12.4764 147.477 13.2884 147.477 14.2665C147.477 15.7245 147.791 16.8318 148.419 17.5885C149.046 18.3267 149.877 18.6958 150.91 18.6958ZM167.537 21.3257C166.337 21.3257 165.331 21.1226 164.519 20.7166C163.726 20.3106 163.135 19.7201 162.748 18.9449C162.36 18.1514 162.166 17.1732 162.166 16.0105V10.1141H160.727C160.284 10.1141 159.942 10.0034 159.702 9.78191C159.463 9.54199 159.343 9.21902 159.343 8.81301C159.343 8.38854 159.463 8.06557 159.702 7.84411C159.942 7.62265 160.284 7.51192 160.727 7.51192H162.166V4.99278C162.166 4.42066 162.314 3.98697 162.609 3.69168C162.923 3.3964 163.357 3.24876 163.91 3.24876C164.464 3.24876 164.888 3.3964 165.184 3.69168C165.479 3.98697 165.627 4.42066 165.627 4.99278V7.51192H168.561C169.004 7.51192 169.345 7.62265 169.585 7.84411C169.825 8.06557 169.945 8.38854 169.945 8.81301C169.945 9.21902 169.825 9.54199 169.585 9.78191C169.345 10.0034 169.004 10.1141 168.561 10.1141H165.627V15.8168C165.627 16.7026 165.82 17.367 166.208 17.8099C166.595 18.2529 167.223 18.4743 168.09 18.4743C168.404 18.4743 168.681 18.4466 168.921 18.3913C169.161 18.3359 169.373 18.299 169.558 18.2805C169.779 18.2621 169.964 18.3359 170.111 18.502C170.259 18.6496 170.333 18.9634 170.333 19.4432C170.333 19.8123 170.268 20.1445 170.139 20.4398C170.028 20.7166 169.816 20.9104 169.502 21.0211C169.262 21.095 168.949 21.1596 168.561 21.2149C168.173 21.2887 167.832 21.3257 167.537 21.3257ZM177.998 21.3257C176.596 21.3257 175.378 21.0396 174.344 20.4675C173.311 19.8954 172.508 19.0833 171.936 18.0314C171.364 16.961 171.078 15.706 171.078 14.2665C171.078 13.1777 171.234 12.2088 171.548 11.3598C171.88 10.4924 172.351 9.75423 172.96 9.1452C173.569 8.51773 174.298 8.04712 175.147 7.73338C175.996 7.40118 176.946 7.23509 177.998 7.23509C179.401 7.23509 180.619 7.52114 181.652 8.09326C182.686 8.66537 183.489 9.4774 184.061 10.5293C184.633 11.5813 184.919 12.827 184.919 14.2665C184.919 15.3554 184.753 16.3335 184.421 17.2009C184.107 18.0683 183.646 18.8157 183.037 19.4432C182.427 20.0522 181.698 20.5229 180.85 20.855C180.001 21.1688 179.05 21.3257 177.998 21.3257ZM177.998 18.6958C178.681 18.6958 179.281 18.5297 179.798 18.1975C180.314 17.8653 180.711 17.3762 180.988 16.7303C181.283 16.0659 181.431 15.2447 181.431 14.2665C181.431 12.7901 181.117 11.692 180.49 10.9723C179.862 10.2341 179.032 9.86496 177.998 9.86496C177.315 9.86496 176.716 10.0311 176.199 10.3632C175.682 10.677 175.276 11.1661 174.981 11.8304C174.704 12.4764 174.566 13.2884 174.566 14.2665C174.566 15.7245 174.879 16.8318 175.507 17.5885C176.134 18.3267 176.965 18.6958 177.998 18.6958ZM189.547 21.2703C188.975 21.2703 188.532 21.1226 188.218 20.8274C187.923 20.5136 187.775 20.0707 187.775 19.4986V9.03447C187.775 8.46236 187.923 8.02866 188.218 7.73338C188.513 7.43809 188.928 7.29045 189.464 7.29045C189.999 7.29045 190.414 7.43809 190.709 7.73338C191.005 8.02866 191.152 8.46236 191.152 9.03447V10.7785H190.876C191.134 9.67118 191.641 8.83146 192.398 8.25935C193.155 7.68724 194.161 7.34582 195.415 7.23509C195.803 7.19818 196.108 7.29968 196.329 7.5396C196.569 7.76106 196.707 8.11171 196.744 8.59155C196.781 9.05293 196.67 9.43126 196.412 9.72654C196.172 10.0034 195.803 10.1695 195.305 10.2248L194.696 10.2802C193.57 10.3909 192.721 10.7416 192.149 11.3321C191.577 11.9043 191.291 12.7163 191.291 13.7682V19.4986C191.291 20.0707 191.143 20.5136 190.848 20.8274C190.553 21.1226 190.119 21.2703 189.547 21.2703ZM200.332 21.2426C199.778 21.2426 199.354 21.0765 199.059 20.7443C198.763 20.4121 198.616 19.9507 198.616 19.3602V9.20057C198.616 8.59155 198.763 8.13017 199.059 7.81643C199.354 7.48423 199.778 7.31814 200.332 7.31814C200.886 7.31814 201.31 7.48423 201.605 7.81643C201.919 8.13017 202.076 8.59155 202.076 9.20057V19.3602C202.076 19.9507 201.928 20.4121 201.633 20.7443C201.338 21.0765 200.904 21.2426 200.332 21.2426ZM200.332 4.74363C199.686 4.74363 199.179 4.58676 198.809 4.27302C198.459 3.94083 198.283 3.48868 198.283 2.91656C198.283 2.326 198.459 1.87384 198.809 1.5601C199.179 1.24636 199.686 1.0895 200.332 1.0895C200.996 1.0895 201.504 1.24636 201.855 1.5601C202.205 1.87384 202.381 2.326 202.381 2.91656C202.381 3.48868 202.205 3.94083 201.855 4.27302C201.504 4.58676 200.996 4.74363 200.332 4.74363ZM211.845 21.3257C210.442 21.3257 209.224 21.0396 208.191 20.4675C207.157 19.8954 206.354 19.0833 205.782 18.0314C205.21 16.961 204.924 15.706 204.924 14.2665C204.924 13.1777 205.081 12.2088 205.395 11.3598C205.727 10.4924 206.198 9.75423 206.807 9.1452C207.416 8.51773 208.145 8.04712 208.994 7.73338C209.842 7.40118 210.793 7.23509 211.845 7.23509C213.247 7.23509 214.465 7.52114 215.499 8.09326C216.532 8.66537 217.335 9.4774 217.907 10.5293C218.479 11.5813 218.766 12.827 218.766 14.2665C218.766 15.3554 218.599 16.3335 218.267 17.2009C217.954 18.0683 217.492 18.8157 216.883 19.4432C216.274 20.0522 215.545 20.5229 214.696 20.855C213.847 21.1688 212.897 21.3257 211.845 21.3257ZM211.845 18.6958C212.528 18.6958 213.127 18.5297 213.644 18.1975C214.161 17.8653 214.558 17.3762 214.835 16.7303C215.13 16.0659 215.278 15.2447 215.278 14.2665C215.278 12.7901 214.964 11.692 214.336 10.9723C213.709 10.2341 212.878 9.86496 211.845 9.86496C211.162 9.86496 210.562 10.0311 210.045 10.3632C209.529 10.677 209.123 11.1661 208.827 11.8304C208.551 12.4764 208.412 13.2884 208.412 14.2665C208.412 15.7245 208.726 16.8318 209.353 17.5885C209.981 18.3267 210.811 18.6958 211.845 18.6958ZM59.0647 46.2703C58.4926 46.2703 58.0405 46.1134 57.7083 45.7997C57.3945 45.4675 57.2377 44.9969 57.2377 44.3879V28.4149C57.2377 27.8058 57.3945 27.3445 57.7083 27.0307C58.0405 26.6985 58.5111 26.5324 59.1201 26.5324H68.7814C69.2612 26.5324 69.6211 26.6524 69.861 26.8923C70.1009 27.1322 70.2209 27.4736 70.2209 27.9166C70.2209 28.3779 70.1009 28.7378 69.861 28.9962C69.6211 29.2361 69.2612 29.3561 68.7814 29.3561H60.7811V34.865H68.2001C68.6614 34.865 69.0121 34.9849 69.252 35.2248C69.5104 35.4648 69.6396 35.8062 69.6396 36.2491C69.6396 36.7105 69.5104 37.0704 69.252 37.3287C69.0121 37.5686 68.6614 37.6886 68.2001 37.6886H60.7811V44.3879C60.7811 45.6428 60.2089 46.2703 59.0647 46.2703ZM77.1678 46.3257C75.9867 46.3257 74.9439 46.0396 74.0396 45.4675C73.1538 44.8954 72.4617 44.0833 71.9634 43.0314C71.4651 41.961 71.216 40.706 71.216 39.2665C71.216 37.8086 71.4651 36.5628 71.9634 35.5293C72.4617 34.4774 73.1538 33.6654 74.0396 33.0933C74.9439 32.5211 75.9867 32.2351 77.1678 32.2351C78.2936 32.2351 79.2717 32.5119 80.1022 33.0656C80.9511 33.6192 81.5232 34.3482 81.8185 35.2525L81.5417 35.9446V34.0345C81.5417 33.4624 81.6893 33.0287 81.9846 32.7334C82.2983 32.4381 82.7228 32.2905 83.258 32.2905C83.8117 32.2905 84.2361 32.4381 84.5314 32.7334C84.8267 33.0287 84.9744 33.4624 84.9744 34.0345V44.4986C84.9744 45.0707 84.8267 45.5136 84.5314 45.8274C84.2361 46.1226 83.8117 46.2703 83.258 46.2703C82.7044 46.2703 82.2799 46.1226 81.9846 45.8274C81.6893 45.5136 81.5417 45.0707 81.5417 44.4986V42.6162L81.8462 43.1698C81.5694 44.1295 81.0065 44.8954 80.1575 45.4675C79.3086 46.0396 78.312 46.3257 77.1678 46.3257ZM78.1367 43.6958C78.8195 43.6958 79.4193 43.5297 79.9361 43.1975C80.4528 42.8653 80.8496 42.3762 81.1264 41.7303C81.4217 41.0659 81.5694 40.2447 81.5694 39.2665C81.5694 37.7901 81.2556 36.692 80.6281 35.9723C80.0007 35.2341 79.1702 34.865 78.1367 34.865C77.4538 34.865 76.854 35.0311 76.3373 35.3632C75.8206 35.677 75.4145 36.1661 75.1193 36.8304C74.8424 37.4764 74.704 38.2884 74.704 39.2665C74.704 40.7245 75.0178 41.8318 75.6452 42.5885C76.2727 43.3267 77.1032 43.6958 78.1367 43.6958ZM94.8186 46.3257C93.3976 46.3257 92.1611 46.0396 91.1091 45.4675C90.0572 44.8769 89.2452 44.0464 88.673 42.976C88.1009 41.9056 87.8149 40.6507 87.8149 39.2112C87.8149 38.1223 87.9717 37.1534 88.2855 36.3045C88.6177 35.4371 89.0883 34.7081 89.6973 34.1175C90.3063 33.5085 91.0445 33.0471 91.9119 32.7334C92.7793 32.4012 93.7482 32.2351 94.8186 32.2351C95.4277 32.2351 96.0828 32.3181 96.7841 32.4842C97.5039 32.6503 98.1775 32.9272 98.805 33.3147C99.1002 33.4993 99.294 33.7207 99.3863 33.9791C99.4786 34.2375 99.497 34.5051 99.4417 34.7819C99.3863 35.0403 99.2663 35.271 99.0818 35.474C98.9157 35.6585 98.7035 35.7785 98.4451 35.8339C98.1867 35.8708 97.9007 35.8062 97.5869 35.6401C97.1809 35.4002 96.7657 35.2248 96.3412 35.1141C95.9167 34.9849 95.5107 34.9203 95.1231 34.9203C94.5141 34.9203 93.9789 35.0218 93.5175 35.2248C93.0562 35.4094 92.6594 35.6862 92.3272 36.0553C92.0134 36.406 91.7735 36.8489 91.6074 37.3841C91.4413 37.9193 91.3583 38.5375 91.3583 39.2388C91.3583 40.6045 91.6812 41.6842 92.3272 42.4777C92.9916 43.2529 93.9236 43.6404 95.1231 43.6404C95.5107 43.6404 95.9075 43.5851 96.3135 43.4743C96.738 43.3636 97.1624 43.1883 97.5869 42.9483C97.9007 42.7823 98.1775 42.7269 98.4174 42.7823C98.6758 42.8376 98.888 42.9668 99.0541 43.1698C99.2202 43.3544 99.3217 43.5851 99.3586 43.8619C99.3955 44.1203 99.3586 44.3786 99.2479 44.637C99.1556 44.8954 98.9711 45.1076 98.6942 45.2737C98.0852 45.6428 97.4393 45.9104 96.7564 46.0765C96.0736 46.2426 95.4277 46.3257 94.8186 46.3257ZM103.336 46.2426C102.782 46.2426 102.358 46.0765 102.063 45.7443C101.767 45.4121 101.62 44.9507 101.62 44.3602V34.2006C101.62 33.5915 101.767 33.1302 102.063 32.8164C102.358 32.4842 102.782 32.3181 103.336 32.3181C103.89 32.3181 104.314 32.4842 104.609 32.8164C104.923 33.1302 105.08 33.5915 105.08 34.2006V44.3602C105.08 44.9507 104.932 45.4121 104.637 45.7443C104.342 46.0765 103.908 46.2426 103.336 46.2426ZM103.336 29.7436C102.69 29.7436 102.183 29.5868 101.814 29.273C101.463 28.9408 101.288 28.4887 101.288 27.9166C101.288 27.326 101.463 26.8738 101.814 26.5601C102.183 26.2464 102.69 26.0895 103.336 26.0895C104 26.0895 104.508 26.2464 104.859 26.5601C105.209 26.8738 105.385 27.326 105.385 27.9166C105.385 28.4887 105.209 28.9408 104.859 29.273C104.508 29.5868 104 29.7436 103.336 29.7436ZM113.299 46.3257C111.767 46.3257 110.613 45.892 109.838 45.0246C109.063 44.1387 108.676 42.8468 108.676 41.149V28.055C108.676 27.4829 108.823 27.0492 109.119 26.7539C109.414 26.4586 109.838 26.311 110.392 26.311C110.946 26.311 111.37 26.4586 111.665 26.7539C111.979 27.0492 112.136 27.4829 112.136 28.055V40.9829C112.136 41.8318 112.311 42.4593 112.662 42.8653C113.031 43.2713 113.548 43.4743 114.212 43.4743C114.36 43.4743 114.498 43.4743 114.627 43.4743C114.757 43.4559 114.886 43.4374 115.015 43.419C115.273 43.382 115.449 43.4559 115.541 43.6404C115.633 43.8065 115.679 44.1572 115.679 44.6924C115.679 45.1537 115.587 45.5136 115.403 45.772C115.218 46.0304 114.913 46.1872 114.489 46.2426C114.304 46.2611 114.111 46.2795 113.908 46.298C113.705 46.3164 113.502 46.3257 113.299 46.3257ZM124.052 46.3257C122.52 46.3257 121.201 46.0396 120.093 45.4675C118.986 44.8954 118.128 44.0833 117.519 43.0314C116.928 41.9794 116.633 40.7337 116.633 39.2942C116.633 37.8916 116.919 36.6643 117.491 35.6124C118.082 34.5604 118.885 33.7392 119.9 33.1486C120.933 32.5396 122.105 32.2351 123.415 32.2351C124.375 32.2351 125.233 32.392 125.99 32.7057C126.765 33.0194 127.42 33.4716 127.955 34.0622C128.509 34.6527 128.924 35.3725 129.201 36.2214C129.496 37.0519 129.644 37.9931 129.644 39.0451C129.644 39.3773 129.524 39.6356 129.284 39.8202C129.063 39.9863 128.74 40.0693 128.315 40.0693H119.429V38.0762H127.208L126.765 38.4914C126.765 37.6425 126.636 36.9319 126.378 36.3598C126.138 35.7877 125.778 35.354 125.298 35.0587C124.836 34.745 124.255 34.5881 123.554 34.5881C122.779 34.5881 122.114 34.7727 121.561 35.1418C121.025 35.4924 120.61 36 120.315 36.6643C120.038 37.3103 119.9 38.0854 119.9 38.9897V39.1835C119.9 40.6968 120.25 41.8318 120.952 42.5885C121.671 43.3267 122.723 43.6958 124.108 43.6958C124.587 43.6958 125.123 43.6404 125.713 43.5297C126.322 43.4005 126.894 43.1883 127.429 42.893C127.817 42.6715 128.158 42.5792 128.454 42.6162C128.749 42.6346 128.98 42.7361 129.146 42.9207C129.33 43.1052 129.441 43.3359 129.478 43.6127C129.515 43.8711 129.46 44.1387 129.312 44.4155C129.183 44.6924 128.952 44.9323 128.62 45.1353C127.974 45.5413 127.226 45.8458 126.378 46.0488C125.547 46.2334 124.772 46.3257 124.052 46.3257Z"></path>
<path fill="#00A184" d="M23.9323 24.7559H44.0873C44.7823 24.7559 45.3456 25.3192 45.3456 26.0142V28.5308C45.3456 29.2257 44.7823 29.7891 44.0873 29.7891H32.7582L44.4806 41.4994C44.9722 41.9906 44.9722 42.7869 44.4806 43.278L42.4756 45.2809C41.984 45.772 41.1868 45.772 40.6952 45.2809L28.9711 33.5689L28.9711 44.889C28.9711 45.5839 28.4077 46.1473 27.7128 46.1473H25.191C24.496 46.1473 23.9326 45.5839 23.9326 44.889L23.9326 29.7891H23.9323V24.7559Z" clip-rule="evenodd" fill-rule="evenodd"></path>
<path fill="#00A184" d="M28.9747 0.847656H16.3736C15.6787 0.847656 15.1153 1.41102 15.1153 2.10597V15.9525H1.25831C0.563365 15.9525 0 16.5159 0 17.2108V29.7888C0 30.4838 0.563365 31.0471 1.25831 31.0471H15.1153L15.1175 44.8939C15.1176 45.5887 15.681 46.152 16.3758 46.152H19.5253C20.2202 46.152 20.7836 45.5886 20.7836 44.8937V21.6098H44.0901C44.785 21.6098 45.3484 21.0464 45.3484 20.3515V17.2108C45.3484 16.5159 44.785 15.9525 44.0901 15.9525H30.233V2.10597C30.233 1.41102 29.6697 0.847656 28.9747 0.847656Z"></path>
</svg>
