<svg xmlns="http://www.w3.org/2000/svg" fill="none" viewBox="0 0 46 47" width="46" height="47" aria-hidden="true">
<path fill="#00A184" fill-rule="evenodd" d="M23.9323 24.7559H44.0873C44.7823 24.7559 45.3456 25.3192 45.3456 26.0142V28.5308C45.3456 29.2257 44.7823 29.7891 44.0873 29.7891H32.7582L44.4806 41.4994C44.9722 41.9906 44.9722 42.7869 44.4806 43.278L42.4756 45.2809C41.984 45.772 41.1868 45.772 40.6952 45.2809L28.9711 33.5689V44.889C28.9711 45.5839 28.4077 46.1473 27.7128 46.1473H25.191C24.496 46.1473 23.9326 45.5839 23.9326 44.889V29.7891H23.9323V24.7559Z" clip-rule="evenodd"/>
<path fill="#00A184" d="M28.9747.847656H16.3736C15.6787.847656 15.1153 1.41102 15.1153 2.10597V15.9525H1.25831C.563365 15.9525 0 16.5159 0 17.2108V29.7888C0 30.4838.563365 31.0471 1.25831 31.0471H15.1153L15.1175 44.8939C15.1176 45.5887 15.681 46.152 16.3758 46.152H19.5253C20.2202 46.152 20.7836 45.5886 20.7836 44.8937V21.6098H44.0901C44.785 21.6098 45.3484 21.0464 45.3484 20.3515V17.2108C45.3484 16.5159 44.785 15.9525 44.0901 15.9525H30.233V2.10597C30.233 1.41102 29.6697.847656 28.9747.847656Z"/>
</svg>
